<?xml version="1.0" encoding="utf-8"?>
<!-- Generator: Adobe Illustrator 16.0.4, SVG Export Plug-In . SVG Version: 6.00 Build 0)  -->
<!DOCTYPE svg PUBLIC "-//W3C//DTD SVG 1.1//EN" "http://www.w3.org/Graphics/SVG/1.1/DTD/svg11.dtd">
<svg version="1.1" id="Capa_1" xmlns="http://www.w3.org/2000/svg" xmlns:xlink="http://www.w3.org/1999/xlink" x="0px" y="0px"
	 width="16px" height="16px" viewBox="0 0 16 16" enable-background="new 0 0 16 16" xml:space="preserve">
<g>
	<path d="M8.533,1.067c-4.124,0-7.467,3.343-7.467,7.467S4.41,16,8.533,16S16,12.657,16,8.533S12.657,1.067,8.533,1.067z M8.533,15
		c-3.566,0-6.467-2.9-6.467-6.467s2.901-6.467,6.467-6.467S15,4.968,15,8.533C15,12.098,12.1,15,8.533,15z"/>
	<path d="M8.855,6.15C8.757,6.052,8.629,6.004,8.5,6.004S8.243,6.052,8.145,6.15L4.902,9.393c-0.195,0.195-0.195,0.512,0,0.707
		c0.195,0.195,0.512,0.195,0.707,0L8.5,7.209l2.891,2.891c0.195,0.195,0.512,0.195,0.707,0s0.195-0.512,0-0.707L8.855,6.15z"/>
</g>
</svg>
