<?xml version="1.0" encoding="iso-8859-1"?>
<!-- Generator: Adobe Illustrator 18.0.0, SVG Export Plug-In . SVG Version: 6.00 Build 0)  -->
<!DOCTYPE svg PUBLIC "-//W3C//DTD SVG 1.1//EN" "http://www.w3.org/Graphics/SVG/1.1/DTD/svg11.dtd">
<svg version="1.1" id="Capa_1" xmlns="http://www.w3.org/2000/svg" xmlns:xlink="http://www.w3.org/1999/xlink" x="0px" y="0px"
	 viewBox="0 0 56.223 37.599" style="enable-background:new 0 0 56.223 37.599;" xml:space="preserve">
<path d="M28.182,22.549h0.012c0.424,0,0.843-0.123,1.182-0.347l0.092-0.059c0.02-0.013,0.041-0.025,0.062-0.039l1.071-0.886
	L56.164,0.123C56.111,0.05,56.021,0,55.925,0H0.297C0.228,0,0.164,0.025,0.113,0.067l26.745,22.044
	C27.195,22.39,27.676,22.549,28.182,22.549z M0,2.989v31.269l19.159-15.477L0,2.989z M37.084,18.886l19.139,15.38V3.093
	L37.084,18.886z M30.999,23.906c-0.763,0.626-1.761,0.971-2.809,0.971c-1.052,0-2.049-0.343-2.81-0.966l-4.388-3.619L0,37.247v0.054
	c0,0.161,0.138,0.298,0.301,0.298h55.625c0.16,0,0.297-0.137,0.297-0.299V37.25L35.249,20.398L30.999,23.906z"/>
<g>
</g>
<g>
</g>
<g>
</g>
<g>
</g>
<g>
</g>
<g>
</g>
<g>
</g>
<g>
</g>
<g>
</g>
<g>
</g>
<g>
</g>
<g>
</g>
<g>
</g>
<g>
</g>
<g>
</g>
</svg>
