<?xml version="1.0" encoding="utf-8"?>
<!-- Generator: Adobe Illustrator 16.0.0, SVG Export Plug-In . SVG Version: 6.00 Build 0)  -->
<!DOCTYPE svg PUBLIC "-//W3C//DTD SVG 1.1//EN" "http://www.w3.org/Graphics/SVG/1.1/DTD/svg11.dtd">
<svg version="1.1" id="Layer_5" xmlns="http://www.w3.org/2000/svg" xmlns:xlink="http://www.w3.org/1999/xlink" x="0px" y="0px"
	 width="100px" height="100px" viewBox="0 0 100 100" enable-background="new 0 0 100 100" xml:space="preserve">
<path d="M92,3H8C5.239,3,3,5.239,3,8v84c0,2.761,2.239,5,5,5h84c2.761,0,5-2.239,5-5V8C97,5.239,94.761,3,92,3z M29.414,87.201
	H13.966V37.503h15.447V87.201z M21.693,30.71c-4.951,0-8.959-4.013-8.959-8.958c0.001-4.938,4.01-8.952,8.959-8.952
	c4.939,0,8.951,4.012,8.951,8.952C30.644,26.697,26.632,30.71,21.693,30.71z M87.266,87.2H71.832V63.033
	c0-5.764-0.106-13.178-8.029-13.178c-8.034,0-9.268,6.278-9.268,12.759V87.2H39.099V37.503h14.816v6.79h0.207
	c2.063-3.907,7.102-8.027,14.614-8.027c15.641,0,18.529,10.294,18.529,23.674V87.2z"/>
</svg>
