<?xml version="1.0" encoding="utf-8"?>
<!-- Generator: Adobe Illustrator 15.0.0, SVG Export Plug-In . SVG Version: 6.00 Build 0)  -->
<!DOCTYPE svg PUBLIC "-//W3C//DTD SVG 1.1//EN" "http://www.w3.org/Graphics/SVG/1.1/DTD/svg11.dtd">
<svg version="1.1" id="Layer_1" xmlns="http://www.w3.org/2000/svg" xmlns:xlink="http://www.w3.org/1999/xlink" x="0px" y="0px"
	 width="64px" height="64px" viewBox="0 0 64 64" enable-background="new 0 0 64 64" xml:space="preserve">
<g>
	<path fill="#020202" d="M44.578,2.917H19.421c-1.669,0-3.027,1.308-3.027,2.915V58.17c0,1.605,1.357,2.913,3.027,2.913h25.157
		c1.67,0,3.027-1.308,3.027-2.913V5.831C47.605,4.224,46.248,2.917,44.578,2.917z M27.608,7.447h8.783v0.616h-8.783V7.447z
		 M32,58.032c-0.934,0-1.693-0.759-1.693-1.692c0-0.932,0.759-1.69,1.693-1.69s1.693,0.759,1.693,1.69
		C33.693,57.273,32.934,58.032,32,58.032z M45.539,51.698H18.464V11.57h27.075V51.698z"/>
</g>
</svg>
