<?xml version="1.0" encoding="iso-8859-1"?>
<!-- Generator: Adobe Illustrator 18.1.1, SVG Export Plug-In . SVG Version: 6.00 Build 0)  -->
<svg version="1.1" id="Capa_1" xmlns="http://www.w3.org/2000/svg" xmlns:xlink="http://www.w3.org/1999/xlink" x="0px" y="0px"
	 viewBox="0 0 52.483 52.483" style="enable-background:new 0 0 52.483 52.483;" xml:space="preserve">
<g>
	<g>
		<path style="fill:#010002;" d="M26.415,14.713c1.229,0.142,2.419-0.508,3.262-1.347c1.542-1.533,2.115-3.879,2.137-5.986
			c-0.028-2.769-1.088-6.016-3.869-7.124c-2.703-1.076-4.938,1.454-5.803,3.708C21.06,6.78,21.399,10.5,23.294,12.9
			C24.086,13.905,25.136,14.566,26.415,14.713z M26.686,1.535c1.07-0.025,1.939,0.796,2.492,1.628
			c0.82,1.235,1.121,2.755,1.136,4.217c-0.021,2.119-0.928,5.783-3.627,5.845c-1.07,0.025-1.939-0.796-2.492-1.628
			c-0.82-1.235-1.12-2.756-1.135-4.217C23.038,5.262,24.015,1.596,26.686,1.535z"/>
		<path style="fill:#010002;" d="M46.382,30.679c-0.485-2.64-0.972-5.279-1.456-7.92c-0.309,0.14-0.626,0.253-0.95,0.34
			c0.474,2.578,0.948,5.158,1.423,7.736c-0.696,0.333-1.157,1.098-1.198,1.876c-0.004,0.081,0.009,0.157,0.015,0.235
			c-3.886,1.464-7.772,2.928-11.659,4.392c0-1.338,0-2.675,0-4.013c0-0.221,0-0.441,0-0.662c0.718,0.017,1.436,0.032,2.152,0.048
			c0.185,0.004,0.311-0.079,0.389-0.194c0.065-0.078,0.112-0.175,0.111-0.306c-0.023-2.893-0.048-5.784-0.07-8.677
			c-0.015-1.718-0.029-3.436-0.043-5.154c-0.003-0.374-0.006-0.747-0.009-1.121c-0.004-0.517-0.749-1.134-1.051-1.501
			c-0.187-0.227-0.427-0.669-0.735-0.754c-0.268-0.074-0.591-0.052-0.863-0.072c-0.836-0.062-1.674-0.125-2.51-0.187
			c-0.166-0.012-0.355,0.103-0.432,0.248c-0.749,1.414-1.765,2.692-2.732,3.977c-0.709-1.326-1.419-2.651-2.129-3.977
			c-0.082-0.154-0.261-0.248-0.432-0.248c-0.713,0-1.425,0-2.138,0c-0.423,0-0.845,0-1.268,0c-0.265,0-0.521-0.037-0.737,0.152
			c-0.587,0.512-1.174,1.024-1.76,1.537c-0.272,0.237-0.237,0.516-0.238,0.84c-0.014,3.452-0.027,6.905-0.041,10.357
			c-0.006,1.527-0.012,3.053-0.018,4.58c0,0.014,0.007,0.026,0.008,0.04c-1.286-1.286-2.572-2.572-3.858-3.858
			c0.082-0.22,0.138-0.449,0.15-0.682c-0.062-1.16-0.892-1.989-2.051-2.051c-1.131-0.061-1.951,0.939-2.041,1.979
			c-2.021,2.156-4.042,4.313-6.063,6.469c-0.44,0.469,0.266,1.178,0.708,0.705c1.882-2.008,3.765-4.017,5.648-6.025
			c0.378,0.568,1.057,0.938,1.748,0.975c0.532,0.028,0.99-0.184,1.342-0.518c2.328,2.328,4.656,4.656,6.984,6.985
			c0,4.735,0,9.472,0,14.208c0,0.516,0,1.029,0,1.545c0,0.268,0.227,0.508,0.5,0.5c3.66-0.09,7.32-0.182,10.979-0.271
			c0.117-0.003,0.206-0.046,0.28-0.102c0.126-0.077,0.22-0.205,0.22-0.398c0-4.437,0-8.873,0-13.31
			c3.546-1.336,7.093-2.672,10.639-4.007c0.456-0.172,0.912-0.345,1.368-0.517c0.389,0.518,1.034,0.849,1.688,0.884
			c1.157,0.062,1.994-0.986,2.051-2.051C48.241,31.597,47.471,30.795,46.382,30.679z M11.264,27.976
			c0.171-0.183,0.342-0.365,0.513-0.548c0.364,0.364,0.729,0.729,1.093,1.094C12.333,28.903,11.478,28.719,11.264,27.976z
			 M12.945,27.185c-0.146-0.146-0.292-0.292-0.437-0.438c0.344,0.091,0.629,0.341,0.735,0.736
			C13.144,27.384,13.044,27.284,12.945,27.185z M26.169,39.744c-0.161,0.061-0.322,0.122-0.483,0.183
			c-1.37-1.37-2.739-2.739-4.109-4.109c0-0.785,0-1.571,0-2.356c0-0.345,0-0.689,0-1.034c1.503,0.032,3.005,0.064,4.508,0.097
			C26.113,34.931,26.141,37.338,26.169,39.744z M23.993,15.912c0.6,1.119,1.198,2.239,1.797,3.358
			c-0.018,0.047-0.026,0.101-0.019,0.165c0.063,0.56,0.127,1.12,0.19,1.68c-0.133-0.104-0.254-0.222-0.391-0.32
			c-0.302-0.217-0.625-0.41-0.969-0.551c-0.139-0.058-0.278-0.099-0.421-0.135c0.063-0.124,0.127-0.247,0.188-0.373
			c0.156-0.324,0.285-0.661,0.351-1.015c0-0.003,0-0.005,0-0.008c0.005-0.037,0.004-0.073-0.001-0.111
			c-0.008-0.068-0.027-0.13-0.064-0.181c-0.063-0.095-0.168-0.157-0.297-0.163c-0.034-0.003-0.065-0.004-0.098,0c0,0,0,0-0.001,0
			c-0.574,0.118-1.144,0.252-1.711,0.4c-0.12,0.032-0.236,0.079-0.356,0.113c0.602-0.951,1.308-1.847,1.802-2.856
			C23.993,15.913,23.992,15.913,23.993,15.912z M20.577,34.817c-0.705-0.704-1.41-1.409-2.114-2.114
			c0.014,0.001,0.025,0.008,0.039,0.008c0.692-0.016,1.384-0.032,2.075-0.048C20.577,33.381,20.577,34.1,20.577,34.817z
			 M20.577,20.878c-0.01,3.595-0.02,7.19-0.03,10.786c-0.515,0.012-1.029,0.023-1.543,0.035c0.019-4.869,0.038-9.737,0.057-14.606
			c0.515-0.449,1.03-0.898,1.544-1.348c0.872,0,1.744,0,2.616,0c-0.318,0.593-0.713,1.154-1.079,1.713
			c-0.365,0.558-0.867,1.154-1.086,1.792c-0.296,0.86,0.859,0.373,1.165,0.278c0.522-0.163,1.057-0.29,1.594-0.408
			c-0.087,0.22-0.189,0.435-0.299,0.648c-0.102,0.197-0.257,0.422-0.255,0.653c0.001,0.121,0.068,0.272,0.186,0.324
			c0.218,0.096,0.468,0.057,0.702,0.125c0.332,0.097,0.638,0.302,0.924,0.49c0.35,0.232,0.678,0.504,0.985,0.792
			c0,0.032,0.001,0.061,0.001,0.108c0.001,0.362,0.001,0.723,0.002,1.085c0.002,1.154,0.004,2.308,0.007,3.461
			c0.002,1.573,0.006,3.144,0.009,4.716c-1.51-0.032-3.021-0.064-4.53-0.098c0.01-3.516,0.02-7.033,0.029-10.548
			C21.579,20.233,20.579,20.233,20.577,20.878z M21.577,51.47c0-4.747,0-9.494,0-14.24c0.934,0.934,1.868,1.868,2.802,2.802
			c0.276,0.275,0.551,0.552,0.827,0.826c0.117,0.117,0.324,0.19,0.486,0.129c0.163-0.062,0.327-0.123,0.49-0.185
			c0.038,3.21,0.075,6.42,0.112,9.63c0.004,0.307,0.007,0.614,0.011,0.922C24.729,51.393,23.153,51.432,21.577,51.47z M26.69,20.918
			c-0.021-0.18-0.041-0.36-0.062-0.541c0.042,0.002,0.081,0,0.124-0.007C26.731,20.552,26.71,20.735,26.69,20.918z M27.602,19.507
			c0.731-0.972,1.482-1.942,2.137-2.966c0.442,0.756,0.96,1.474,1.435,2.212c-0.113-0.032-0.226-0.065-0.34-0.096
			c-0.562-0.151-1.135-0.281-1.706-0.399c-0.034-0.006-0.069-0.006-0.105-0.001c-0.129,0.006-0.232,0.068-0.296,0.163
			c-0.036,0.049-0.055,0.109-0.063,0.175c-0.006,0.041-0.007,0.081-0.001,0.12c0,0.001,0,0.002,0,0.004
			c0.064,0.357,0.199,0.686,0.352,1.015c0.056,0.125,0.12,0.247,0.183,0.369c-0.144,0.032-0.283,0.084-0.417,0.14
			c-0.346,0.143-0.661,0.339-0.969,0.551c-0.132,0.091-0.259,0.192-0.387,0.292C27.482,20.559,27.542,20.034,27.602,19.507z
			 M31.556,50.539c0,0.229,0,0.456,0,0.685c-1.5,0.037-3,0.074-4.5,0.111c-0.042-3.604-0.084-7.21-0.126-10.814
			c1.542-0.581,3.084-1.162,4.626-1.742C31.556,42.698,31.556,46.619,31.556,50.539z M31.556,37.715
			c-0.98,0.369-1.961,0.738-2.941,1.107c-0.565,0.214-1.131,0.427-1.698,0.641c-0.023-2.017-0.047-4.032-0.07-6.048
			c-0.004-0.292-0.007-0.583-0.011-0.875c1.574,0.034,3.147,0.067,4.72,0.102C31.556,34.332,31.556,36.023,31.556,37.715z
			 M31.556,20.795c0,3.616,0,7.231,0,10.847c-1.412-0.03-2.824-0.061-4.236-0.091c0-1.623-0.001-3.247-0.001-4.87
			c0-1.156,0-2.313-0.001-3.469c0-0.347,0-0.694,0-1.041c0-0.005,0-0.006,0-0.011c0.275-0.256,0.563-0.499,0.869-0.719
			c0.285-0.205,0.592-0.394,0.918-0.528c0.273-0.113,0.568-0.055,0.828-0.169c0.117-0.052,0.186-0.203,0.187-0.324
			c0.002-0.23-0.153-0.456-0.257-0.653c-0.107-0.208-0.208-0.416-0.293-0.629c0.49,0.11,0.98,0.216,1.463,0.354
			c0.343,0.098,1.486,0.675,1.302-0.208c-0.124-0.591-0.703-1.222-1.024-1.713c-0.381-0.583-0.791-1.166-1.125-1.781
			c0.005-0.008,0.01-0.016,0.015-0.024c0.905,0.068,1.812,0.135,2.718,0.203c0.39,0.474,0.779,0.947,1.17,1.42
			c0.039,4.771,0.078,9.541,0.117,14.312c-0.55-0.013-1.099-0.024-1.648-0.037c0-3.622,0-7.245,0-10.868
			C32.556,20.15,31.556,20.15,31.556,20.795z M45.592,31.889c0.031,0.168,0.062,0.336,0.093,0.504
			c-0.154,0.059-0.31,0.116-0.464,0.175C45.245,32.256,45.383,32.03,45.592,31.889z M45.583,33.493
			c0.266-0.101,0.532-0.201,0.799-0.302c0.271-0.103,0.402-0.326,0.35-0.613c-0.05-0.272-0.101-0.546-0.15-0.818
			c0.378,0.126,0.693,0.443,0.721,0.951C47.248,33.71,46.175,33.967,45.583,33.493z"/>
		<path style="fill:#010002;" d="M43.974,23.099c0.325-0.086,0.644-0.2,0.951-0.34c0.342-0.154,0.672-0.333,0.983-0.552
			c1.616-1.136,2.536-3.01,2.565-4.969c-0.043-2.791-1.908-5.201-4.611-5.916c-2.707-0.715-5.573,0.652-6.885,3.076
			c-1.334,2.466-0.683,5.589,1.383,7.428C39.903,23.201,42.046,23.615,43.974,23.099z M47.945,19.324
			c-0.023,0.158-0.13,0.298-0.291,0.31C47.815,19.622,47.922,19.482,47.945,19.324z M42.241,11.666
			c0.015,0.16,0.029,0.32,0.044,0.48c0.03-0.001,0.062-0.005,0.091-0.006c2.812-0.044,5.057,2.35,5.098,5.098
			c-0.008,0.513-0.111,0.998-0.256,1.463c0.16,0.062,0.319,0.123,0.479,0.184c-0.159-0.062-0.318-0.123-0.479-0.184
			c-0.015-0.006-0.03-0.012-0.046-0.018c-1.482-0.57-2.965-1.14-4.445-1.71c-0.146-1.582-0.289-3.164-0.435-4.746
			c-0.002-0.027-0.005-0.054-0.007-0.082C42.269,11.985,42.255,11.825,42.241,11.666c-0.012-0.12-0.066-0.21-0.142-0.271
			C42.176,11.456,42.23,11.546,42.241,11.666z M41.544,12.228c0.152,1.669,0.305,3.339,0.457,5.01
			c0.018,0.182,0.105,0.296,0.275,0.362c1.56,0.599,3.117,1.199,4.678,1.799h0.001c-0.821,1.715-2.544,2.907-4.578,2.937
			c-2.812,0.043-5.058-2.351-5.099-5.098C37.239,14.715,39.164,12.655,41.544,12.228z"/>
	</g>
</g>
<g>
</g>
<g>
</g>
<g>
</g>
<g>
</g>
<g>
</g>
<g>
</g>
<g>
</g>
<g>
</g>
<g>
</g>
<g>
</g>
<g>
</g>
<g>
</g>
<g>
</g>
<g>
</g>
<g>
</g>
</svg>
