<?xml version="1.0" encoding="iso-8859-1"?>
<!-- Generator: Adobe Illustrator 16.0.0, SVG Export Plug-In . SVG Version: 6.00 Build 0)  -->
<!DOCTYPE svg PUBLIC "-//W3C//DTD SVG 1.1//EN" "http://www.w3.org/Graphics/SVG/1.1/DTD/svg11.dtd">
<svg version="1.1" id="Capa_1" xmlns="http://www.w3.org/2000/svg" xmlns:xlink="http://www.w3.org/1999/xlink" x="0px" y="0px"
	 width="168.603px" height="168.603px" viewBox="0 0 168.603 168.603" style="enable-background:new 0 0 168.603 168.603;"
	 xml:space="preserve">
<g>
	<path d="M18.558,29.083C8.325,29.083,0,37.409,0,47.641c0,9.272,6.866,16.922,15.756,18.277V80.78c0,0.219,0.077,0.402,0.119,0.6
		c-3.324,1.128-5.722,4.235-5.722,7.934v41.773c0,4.623,3.766,8.405,8.405,8.405c4.626,0,8.406-3.782,8.406-8.405V89.313
		c0-3.699-2.416-6.806-5.722-7.934c0.044-0.198,0.117-0.38,0.117-0.6V65.918c8.899-1.354,15.758-8.99,15.758-18.277
		C37.117,37.42,28.783,29.083,18.558,29.083z M21.359,131.109c0,1.537-1.266,2.802-2.801,2.802c-1.54,0-2.802-1.265-2.802-2.802
		V89.336c0-1.536,1.262-2.802,2.802-2.802c1.536,0,2.801,1.266,2.801,2.802V131.109z M18.558,60.602
		c-7.144,0-12.955-5.811-12.955-12.955c0-7.144,5.811-12.955,12.955-12.955c7.138,0,12.956,5.811,12.956,12.955
		C31.514,54.791,25.702,60.602,18.558,60.602z M18.536,37.651c-2.673,0-5.185,1.046-7.073,2.937
		c-1.892,1.894-2.919,4.408-2.919,7.092c0.012,5.504,4.513,9.986,10.024,9.986h0.012c2.677-0.005,5.175-1.053,7.071-2.947
		c1.889-1.901,2.92-4.41,2.92-7.083C28.552,42.134,24.065,37.651,18.536,37.651z M21.674,50.769
		c-0.826,0.829-1.934,1.289-3.116,1.294c-2.431-0.005-4.411-1.978-4.411-4.394c-0.011-1.182,0.449-2.284,1.284-3.133
		c0.829-0.829,1.94-1.283,3.133-1.283c2.426,0,4.385,1.978,4.391,4.394C22.97,48.824,22.51,49.929,21.674,50.769z M57.911,39.937
		c-0.969-1.204-2.736-1.39-3.941-0.416L39.262,51.428c-1.048,0.849-1.338,2.315-0.707,3.503l8.304,15.493v10.379
		c0,0.218,0.079,0.404,0.117,0.598c-3.316,1.127-5.72,4.241-5.72,7.935v41.773c0,4.629,3.772,8.404,8.404,8.404
		c4.629,0,8.405-3.775,8.405-8.404V89.336c0-3.694-2.408-6.808-5.72-7.935c0.046-0.194,0.117-0.38,0.117-0.598V69.724
		c0-0.46-0.117-0.918-0.341-1.321l-7.546-14.076l12.908-10.438C58.701,42.895,58.878,41.141,57.911,39.937z M52.462,131.109
		c0,1.537-1.266,2.802-2.802,2.802c-1.54,0-2.801-1.265-2.801-2.802V89.336c0-1.536,1.261-2.802,2.801-2.802
		c1.536,0,2.802,1.266,2.802,2.802V131.109z M83.158,81.396c0.047-0.208,0.118-0.386,0.118-0.604V43.093
		c0-1.542-1.262-2.803-2.801-2.803H68.566c-1.545,0-2.801,1.262-2.801,2.803c0,1.545,1.256,2.801,2.801,2.801h9.106v6.533h-9.106
		c-1.545,0-2.801,1.261-2.801,2.802c0,1.545,1.256,2.801,2.801,2.801h9.106v22.761c0,0.218,0.078,0.397,0.118,0.604
		c-3.317,1.127-5.722,4.236-5.722,7.923v41.773c0,4.641,3.773,8.405,8.406,8.405c4.628,0,8.404-3.765,8.404-8.405V89.318
		C88.884,85.632,86.476,82.528,83.158,81.396z M83.281,131.109c0,1.537-1.267,2.802-2.801,2.802c-1.541,0-2.801-1.265-2.801-2.802
		V89.336c0-1.536,1.261-2.802,2.801-2.802c1.534,0,2.801,1.266,2.801,2.802V131.109z M114.441,81.396
		c0.055-0.208,0.121-0.386,0.121-0.604V43.093c0-1.542-1.265-2.803-2.802-2.803H99.853c-1.544,0-2.802,1.262-2.802,2.803v21.712
		c0,1.545,1.258,2.801,2.802,2.801h9.105v13.185c0,0.218,0.076,0.397,0.114,0.604c-3.316,1.127-5.718,4.236-5.718,7.923v41.773
		c0,4.641,3.777,8.405,8.405,8.405c4.641,0,8.404-3.765,8.404-8.405V89.318C120.165,85.632,117.77,82.528,114.441,81.396z
		 M108.958,45.894v5.721h-6.304v-5.721H108.958z M102.655,62.003v-4.786h6.304v4.786H102.655z M114.562,131.109
		c0,1.537-1.265,2.802-2.802,2.802c-1.544,0-2.802-1.265-2.802-2.802V89.336c0-1.536,1.258-2.802,2.802-2.802
		c1.537,0,2.802,1.266,2.802,2.802V131.109z M168.603,126.436c0-0.321-0.042-0.619-0.141-0.908l-3.23-72.988
		c-0.076-1.497-1.297-2.679-2.802-2.679h-5.142l0.01-11.907c0-0.744-0.294-1.464-0.816-1.983c-0.523-0.531-1.236-0.818-1.985-0.818
		H140.49c-1.551,0-2.802,1.256-2.802,2.802l-0.013,11.907h-5.374c-1.51,0-2.729,1.182-2.802,2.685l-3.018,73.634
		c0,0.011,0,0.021,0,0.033v10.506c0,1.542,1.251,2.802,2.801,2.802h36.42c1.543,0,2.802-1.26,2.802-2.802v-9.729
		C168.538,126.791,168.603,126.615,168.603,126.436z M143.278,40.756h8.408v8.752h-8.408V40.756z M134.985,55.464h24.755
		l3.03,68.171h-30.578L134.985,55.464z M132.072,133.911v-4.674h30.82v4.674H132.072z"/>
</g>
<g>
</g>
<g>
</g>
<g>
</g>
<g>
</g>
<g>
</g>
<g>
</g>
<g>
</g>
<g>
</g>
<g>
</g>
<g>
</g>
<g>
</g>
<g>
</g>
<g>
</g>
<g>
</g>
<g>
</g>
</svg>
