<?xml version="1.0" encoding="iso-8859-1"?>
<!-- Generator: Adobe Illustrator 16.0.0, SVG Export Plug-In . SVG Version: 6.00 Build 0)  -->
<!DOCTYPE svg PUBLIC "-//W3C//DTD SVG 1.1//EN" "http://www.w3.org/Graphics/SVG/1.1/DTD/svg11.dtd">
<svg version="1.1" id="Capa_1" xmlns="http://www.w3.org/2000/svg" xmlns:xlink="http://www.w3.org/1999/xlink" x="0px" y="0px"
	 width="380.722px" height="380.721px" viewBox="0 0 380.722 380.721" style="enable-background:new 0 0 380.722 380.721;"
	 xml:space="preserve">
<g>
	<g>
		<path d="M193.23,70.218C193.23,31.493,161.732,0,123.007,0C84.294,0,52.802,31.493,52.802,70.206
			c0,35.001,25.747,64.106,59.284,69.363v72.669c-9.185,4.171-15.61,13.396-15.61,24.154v117.791
			c0.012,14.65,11.886,26.537,26.531,26.537c14.646,0,26.52-11.887,26.52-26.514V236.393c0-10.746-6.402-19.983-15.599-24.154
			v-72.658C167.483,134.312,193.23,105.207,193.23,70.218z M77.776,70.206c0-24.945,20.298-45.243,45.243-45.243
			c24.951,0,45.26,20.298,45.26,45.243c0,24.951-20.309,45.26-45.272,45.26C98.074,115.466,77.776,95.168,77.776,70.206z"/>
		<path d="M104.115,93.838c-1.783-2.69-3.77-5.821-5.426-9.185c-0.819-1.679-1.557-3.416-2.126-5.176
			c-0.552-1.714-0.988-3.631-1.121-5.153c-0.047-0.296-0.07-0.953-0.093-1.487l-0.023-0.418c0,0.215,0-0.14,0-0.192l0.035-0.726
			c0.023-0.947,0.011-1.9,0.127-2.864c0.134-1.917,0.418-3.828,0.785-5.675c0.703-3.724,1.725-7.256,2.713-10.341
			c0.976-3.079,1.952-5.688,2.643-7.541c0.715-1.882,1.121-2.963,1.121-2.963s-1.062,0.569-2.643,1.854
			c-1.609,1.29-3.735,3.288-5.925,6.059c-2.167,2.771-4.357,6.355-5.926,10.637c-0.418,1.057-0.761,2.167-1.046,3.317
			c-0.348,1.133-0.586,2.312-0.749,3.52c-0.227,1.203-0.349,2.44-0.384,3.689l-0.058,0.941c0,0.238-0.023,0.145-0.012,0.633
			l0.012,0.401c0.023,0.575,0,1.034,0.093,1.847c0.313,2.887,0.987,5.292,1.975,7.674c0.976,2.329,2.202,4.426,3.561,6.28
			c2.69,3.724,5.792,6.53,8.609,8.615c2.847,2.057,5.415,3.427,7.285,4.258c1.854,0.831,2.998,1.145,2.998,1.145
			s-0.68-0.941-1.841-2.574C107.543,98.799,105.911,96.54,104.115,93.838z"/>
	</g>
	<path d="M253.062,205.256V101.274L327.92,6.768l-2.149-1.76l-94.564,94.314v1.964v103.981c-9.19,4.171-15.604,13.396-15.604,24.155
		v117.79c0,14.651,11.874,26.526,26.525,26.526s26.525-11.887,26.525-26.526V229.411
		C268.653,218.664,262.263,209.438,253.062,205.256z"/>
</g>
<g>
</g>
<g>
</g>
<g>
</g>
<g>
</g>
<g>
</g>
<g>
</g>
<g>
</g>
<g>
</g>
<g>
</g>
<g>
</g>
<g>
</g>
<g>
</g>
<g>
</g>
<g>
</g>
<g>
</g>
</svg>
