<?xml version="1.0" encoding="iso-8859-1"?>
<!-- Generator: Adobe Illustrator 16.0.0, SVG Export Plug-In . SVG Version: 6.00 Build 0)  -->
<!DOCTYPE svg PUBLIC "-//W3C//DTD SVG 1.1//EN" "http://www.w3.org/Graphics/SVG/1.1/DTD/svg11.dtd">
<svg version="1.1" id="Capa_1" xmlns="http://www.w3.org/2000/svg" xmlns:xlink="http://www.w3.org/1999/xlink" x="0px" y="0px"
	 width="338.516px" height="338.516px" viewBox="0 0 338.516 338.516" style="enable-background:new 0 0 338.516 338.516;"
	 xml:space="preserve">
<g>
	<g>
		<path d="M270.925,96.426c-9.572-4.933-30.685-15.246-66.737-15.246C147.868,81.18,79.239,105.697,0,154.078
			c28.31-33.5,112.113-114.65,259.647-114.65c7.734,0,15.625,0.24,23.533,0.679C269.399,56.929,268.618,76.813,270.925,96.426z
			 M330.155,92.15C276.737,247.957,158.347,292.542,115.37,303.831C301.873,173.287,279.541,84.089,278.581,80.792
			c-0.187-1.685-4.09-41.214,37.649-45.85c1.531-0.186,2.979-0.258,4.336-0.258c6.923,0,11.691,2.108,14.573,6.449
			C343.414,53.59,334.401,82.035,330.155,92.15z"/>
	</g>
</g>
<g>
</g>
<g>
</g>
<g>
</g>
<g>
</g>
<g>
</g>
<g>
</g>
<g>
</g>
<g>
</g>
<g>
</g>
<g>
</g>
<g>
</g>
<g>
</g>
<g>
</g>
<g>
</g>
<g>
</g>
</svg>
