<?xml version="1.0" encoding="iso-8859-1"?>
<!-- Generator: Adobe Illustrator 18.1.1, SVG Export Plug-In . SVG Version: 6.00 Build 0)  -->
<svg version="1.1" id="Capa_1" xmlns="http://www.w3.org/2000/svg" xmlns:xlink="http://www.w3.org/1999/xlink" x="0px" y="0px"
	 viewBox="0 0 612 612" style="enable-background:new 0 0 612 612;" xml:space="preserve">
<g>
	<g>
		<path style="fill:#010002;" d="M478.584,411.876c4.488-4.488,6.12-9.384,4.896-14.688c-0.408-2.446-1.431-4.69-3.063-6.73
			s-3.468-3.876-5.508-5.508l-72.216-42.229l-0.612-0.609c-2.448-1.227-5.712-1.836-9.792-1.836c-6.528,0-11.628,2.039-15.3,6.117
			l-21.42,21.422c-1.227,1.225-2.856,1.837-4.896,1.837c-4.896-0.816-10.812-3.063-17.748-6.732
			c-5.712-3.264-12.954-7.854-21.726-13.771c-8.772-5.916-18.87-14.588-30.294-26.012c-8.16-8.565-15.708-17.136-22.644-25.704
			c-5.712-6.936-11.016-14.484-15.912-22.644s-7.548-15.3-7.956-21.42c0-2.04,0.612-3.672,1.836-4.896l18.36-18.36
			c3.264-3.264,5.304-7.242,6.12-11.934s0.204-9.078-1.836-13.158l-39.78-74.664c-3.264-6.528-8.16-9.792-14.688-9.792
			c-4.08,0-8.16,1.632-12.24,4.896l-48.96,49.572c-2.448,2.04-4.59,4.998-6.426,8.874s-2.958,7.446-3.366,10.71v15.3
			c0,0,2.652,12.648,7.956,37.944s14.586,44.268,27.846,56.916c13.26,12.647,32.742,36.516,58.446,71.604
			c22.032,22.032,42.636,39.372,61.812,52.021c19.176,12.646,36.414,22.134,51.713,28.458c15.301,6.321,28.255,10.302,38.86,11.934
			c10.608,1.632,18.156,2.448,22.646,2.448c2.04,0,3.672-0.104,4.896-0.307c1.227-0.203,2.04-0.308,2.448-0.308
			c3.264-0.408,6.73-1.53,10.404-3.366c3.672-1.836,6.729-3.978,9.18-6.426L478.584,411.876L478.584,411.876z M306,0
			c42.024,0,81.702,8.058,119.034,24.174s69.768,37.944,97.308,65.484s49.368,59.976,65.484,97.308S612,263.976,612,306
			c0,28.152-3.672,55.284-11.016,81.396c-7.347,26.109-17.646,50.487-30.906,73.134c-13.26,22.644-29.172,43.248-47.736,61.812
			c-18.562,18.564-39.168,34.479-61.812,47.736c-22.646,13.26-47.022,23.562-73.136,30.906C361.284,608.328,334.152,612,306,612
			s-55.284-3.672-81.396-11.016c-26.112-7.347-50.49-17.646-73.134-30.906s-43.248-29.172-61.812-47.736
			c-18.564-18.562-34.476-39.168-47.736-61.812c-13.26-22.646-23.562-47.022-30.906-73.135C3.672,361.284,0,334.152,0,306
			s3.672-55.284,11.016-81.396s17.646-50.49,30.906-73.134s29.172-43.248,47.736-61.812s39.168-34.476,61.812-47.736
			s47.022-23.562,73.134-30.906S277.848,0,306,0z"/>
	</g>
</g>
<g>
</g>
<g>
</g>
<g>
</g>
<g>
</g>
<g>
</g>
<g>
</g>
<g>
</g>
<g>
</g>
<g>
</g>
<g>
</g>
<g>
</g>
<g>
</g>
<g>
</g>
<g>
</g>
<g>
</g>
</svg>
