<?xml version="1.0" encoding="iso-8859-1"?>
<!-- Generator: Adobe Illustrator 16.0.0, SVG Export Plug-In . SVG Version: 6.00 Build 0)  -->
<!DOCTYPE svg PUBLIC "-//W3C//DTD SVG 1.1//EN" "http://www.w3.org/Graphics/SVG/1.1/DTD/svg11.dtd">
<svg version="1.1" id="Capa_1" xmlns="http://www.w3.org/2000/svg" xmlns:xlink="http://www.w3.org/1999/xlink" x="0px" y="0px"
	 width="380.721px" height="380.721px" viewBox="0 0 380.721 380.721" style="enable-background:new 0 0 380.721 380.721;"
	 xml:space="preserve">
<g>
	<g>
		<path d="M369.019,70.229c-8.772-9.422-23.517-9.957-32.95-1.173L220.834,176.308c-1.197,1.121-2.23,2.324-3.148,3.608
			c-23.912,3.102-65.379,12.629-94.692,41.932C85.471,259.387,13.098,345.145,10.037,348.77c-6.919,8.202-5.873,20.472,2.324,27.385
			c3.654,3.067,8.104,4.566,12.513,4.566c5.537,0,11.021-2.348,14.86-6.902c0.75-0.883,74.36-88.115,110.744-124.506
			c31.126-31.114,85.856-32.043,86.368-32.043c4.09-0.023,7.854-1.325,10.979-3.498c1.696-0.918,3.312-1.986,4.787-3.357
			l115.233-107.241C377.256,94.408,377.78,79.652,369.019,70.229z"/>
		<path d="M185.014,120.248l1.249,0.023c1.598,0,3.201-0.215,4.798-0.424c4.712,4.566,42.217,40.642,45.796,37.069
			c3.753-3.758-26.526-41.711-23.4-45.783c0.175-0.093,0.325-0.198,0.477-0.296c5.286-1.888,37.877,22.407,40.409,20.821
			c2.173-1.354-14.384-29.587-16.916-40.009c1.08-1.086,2.172-2.155,3.218-3.236c9.052,4.188,32.323,26.566,35.716,23.173
			c3.881-3.892-19.508-38.94-17.277-42.629c2.243-3.689,35.729,28.721,39.295,25.154c3.566-3.573-20.844-39.062-16.592-43.343
			c4.276-4.27,34.961,28.198,37.947,25.195c1.939-1.923-4.74-18.88-13.129-30.882l2.103-3.823
			c5.67-10.276,3.241-18.532,0.221-23.661C302.804,7.244,287.885,0,272.688,0c-11.362,0-21.099,3.974-27.432,11.195
			c-3.393,3.904-8.26,9.911-13.907,16.87C216.21,46.783,188,81.604,179.065,83.521c-11.368,2.428-21.756-5.78-25.805-14.099
			l-3.009-6.187l-3.735,5.769c-4.578,7.059-4.032,19.159,1.295,29.424C151.883,106.218,162.09,119.417,185.014,120.248z
			 M180.698,91.125c10.729-2.301,32.027-27.699,56.705-58.169c5.554-6.867,10.352-12.804,13.71-16.644
			c4.821-5.507,12.479-8.545,21.575-8.545c12.409,0,24.83,5.81,29.535,13.803c2.08,3.485,2.626,7.209,1.639,11.113
			c-3.393-2.486-7.204-3.782-11.259-3.782c-12.327,0-22.889,11.334-28.071,18.096l-2.242,2.998
			c-17.137,23.197-32.684,39.986-46.521,50.292l-0.349,0.25c-10.76,7.947-20.508,11.956-29.129,11.956l-0.976-0.012
			c-19.002-0.691-27.333-11.352-30.592-17.631c-2.678-5.106-3.677-10.294-3.521-14.506C158.617,89.063,169.892,93.42,180.698,91.125
			z"/>
	</g>
</g>
<g>
</g>
<g>
</g>
<g>
</g>
<g>
</g>
<g>
</g>
<g>
</g>
<g>
</g>
<g>
</g>
<g>
</g>
<g>
</g>
<g>
</g>
<g>
</g>
<g>
</g>
<g>
</g>
<g>
</g>
</svg>
